%TF.GenerationSoftware,KiCad,Pcbnew,(6.0.2)*%
%TF.CreationDate,2022-02-18T18:14:02-05:00*%
%TF.ProjectId,EFM32TG11-Core,45464d33-3254-4473-9131-2d436f72652e,rev?*%
%TF.SameCoordinates,Original*%
%TF.FileFunction,Paste,Top*%
%TF.FilePolarity,Positive*%
%FSLAX46Y46*%
G04 Gerber Fmt 4.6, Leading zero omitted, Abs format (unit mm)*
G04 Created by KiCad (PCBNEW (6.0.2)) date 2022-02-18 18:14:02*
%MOMM*%
%LPD*%
G01*
G04 APERTURE LIST*
G04 Aperture macros list*
%AMRoundRect*
0 Rectangle with rounded corners*
0 $1 Rounding radius*
0 $2 $3 $4 $5 $6 $7 $8 $9 X,Y pos of 4 corners*
0 Add a 4 corners polygon primitive as box body*
4,1,4,$2,$3,$4,$5,$6,$7,$8,$9,$2,$3,0*
0 Add four circle primitives for the rounded corners*
1,1,$1+$1,$2,$3*
1,1,$1+$1,$4,$5*
1,1,$1+$1,$6,$7*
1,1,$1+$1,$8,$9*
0 Add four rect primitives between the rounded corners*
20,1,$1+$1,$2,$3,$4,$5,0*
20,1,$1+$1,$4,$5,$6,$7,0*
20,1,$1+$1,$6,$7,$8,$9,0*
20,1,$1+$1,$8,$9,$2,$3,0*%
G04 Aperture macros list end*
%ADD10RoundRect,0.225000X-0.250000X0.225000X-0.250000X-0.225000X0.250000X-0.225000X0.250000X0.225000X0*%
%ADD11RoundRect,0.218750X0.256250X-0.218750X0.256250X0.218750X-0.256250X0.218750X-0.256250X-0.218750X0*%
%ADD12RoundRect,0.200000X0.200000X0.275000X-0.200000X0.275000X-0.200000X-0.275000X0.200000X-0.275000X0*%
%ADD13R,0.900000X0.800000*%
%ADD14RoundRect,0.237500X0.237500X-0.287500X0.237500X0.287500X-0.237500X0.287500X-0.237500X-0.287500X0*%
%ADD15RoundRect,0.250000X-0.475000X0.250000X-0.475000X-0.250000X0.475000X-0.250000X0.475000X0.250000X0*%
%ADD16RoundRect,0.250000X-0.650000X0.325000X-0.650000X-0.325000X0.650000X-0.325000X0.650000X0.325000X0*%
%ADD17RoundRect,0.200000X-0.275000X0.200000X-0.275000X-0.200000X0.275000X-0.200000X0.275000X0.200000X0*%
%ADD18RoundRect,0.237500X-0.287500X-0.237500X0.287500X-0.237500X0.287500X0.237500X-0.287500X0.237500X0*%
%ADD19RoundRect,0.075000X0.075000X-0.662500X0.075000X0.662500X-0.075000X0.662500X-0.075000X-0.662500X0*%
%ADD20RoundRect,0.075000X0.662500X-0.075000X0.662500X0.075000X-0.662500X0.075000X-0.662500X-0.075000X0*%
%ADD21RoundRect,0.150000X-0.512500X-0.150000X0.512500X-0.150000X0.512500X0.150000X-0.512500X0.150000X0*%
%ADD22R,1.000000X1.800000*%
%ADD23RoundRect,0.225000X0.250000X-0.225000X0.250000X0.225000X-0.250000X0.225000X-0.250000X-0.225000X0*%
%ADD24RoundRect,0.150000X0.587500X0.150000X-0.587500X0.150000X-0.587500X-0.150000X0.587500X-0.150000X0*%
%ADD25RoundRect,0.200000X0.275000X-0.200000X0.275000X0.200000X-0.275000X0.200000X-0.275000X-0.200000X0*%
%ADD26R,1.500000X1.500000*%
%ADD27RoundRect,0.218750X-0.218750X-0.256250X0.218750X-0.256250X0.218750X0.256250X-0.218750X0.256250X0*%
G04 APERTURE END LIST*
D10*
%TO.C,C9*%
X168910000Y-105905000D03*
X168910000Y-107455000D03*
%TD*%
D11*
%TO.C,FB1*%
X144780000Y-95402500D03*
X144780000Y-93827500D03*
%TD*%
D12*
%TO.C,R7*%
X132270000Y-113665000D03*
X130620000Y-113665000D03*
%TD*%
D13*
%TO.C,Y2*%
X174690000Y-101304000D03*
X173290000Y-101304000D03*
X173290000Y-102404000D03*
X174690000Y-102404000D03*
%TD*%
D10*
%TO.C,C10*%
X170815000Y-105905000D03*
X170815000Y-107455000D03*
%TD*%
D14*
%TO.C,D4*%
X151130000Y-112635000D03*
X151130000Y-110885000D03*
%TD*%
D15*
%TO.C,C1*%
X135255000Y-86680000D03*
X135255000Y-88580000D03*
%TD*%
D16*
%TO.C,C8*%
X173355000Y-105205000D03*
X173355000Y-108155000D03*
%TD*%
D17*
%TO.C,R5*%
X129540000Y-90615000D03*
X129540000Y-92265000D03*
%TD*%
%TO.C,R10*%
X181610000Y-109665000D03*
X181610000Y-111315000D03*
%TD*%
D18*
%TO.C,D2*%
X127395000Y-99695000D03*
X129145000Y-99695000D03*
%TD*%
%TO.C,D3*%
X127395000Y-113665000D03*
X129145000Y-113665000D03*
%TD*%
D17*
%TO.C,R8*%
X151130000Y-107760000D03*
X151130000Y-109410000D03*
%TD*%
D19*
%TO.C,U2*%
X156270000Y-107262500D03*
X156770000Y-107262500D03*
X157270000Y-107262500D03*
X157770000Y-107262500D03*
X158270000Y-107262500D03*
X158770000Y-107262500D03*
X159270000Y-107262500D03*
X159770000Y-107262500D03*
X160270000Y-107262500D03*
X160770000Y-107262500D03*
X161270000Y-107262500D03*
X161770000Y-107262500D03*
X162270000Y-107262500D03*
X162770000Y-107262500D03*
X163270000Y-107262500D03*
X163770000Y-107262500D03*
D20*
X165682500Y-105350000D03*
X165682500Y-104850000D03*
X165682500Y-104350000D03*
X165682500Y-103850000D03*
X165682500Y-103350000D03*
X165682500Y-102850000D03*
X165682500Y-102350000D03*
X165682500Y-101850000D03*
X165682500Y-101350000D03*
X165682500Y-100850000D03*
X165682500Y-100350000D03*
X165682500Y-99850000D03*
X165682500Y-99350000D03*
X165682500Y-98850000D03*
X165682500Y-98350000D03*
X165682500Y-97850000D03*
D19*
X163770000Y-95937500D03*
X163270000Y-95937500D03*
X162770000Y-95937500D03*
X162270000Y-95937500D03*
X161770000Y-95937500D03*
X161270000Y-95937500D03*
X160770000Y-95937500D03*
X160270000Y-95937500D03*
X159770000Y-95937500D03*
X159270000Y-95937500D03*
X158770000Y-95937500D03*
X158270000Y-95937500D03*
X157770000Y-95937500D03*
X157270000Y-95937500D03*
X156770000Y-95937500D03*
X156270000Y-95937500D03*
D20*
X154357500Y-97850000D03*
X154357500Y-98350000D03*
X154357500Y-98850000D03*
X154357500Y-99350000D03*
X154357500Y-99850000D03*
X154357500Y-100350000D03*
X154357500Y-100850000D03*
X154357500Y-101350000D03*
X154357500Y-101850000D03*
X154357500Y-102350000D03*
X154357500Y-102850000D03*
X154357500Y-103350000D03*
X154357500Y-103850000D03*
X154357500Y-104350000D03*
X154357500Y-104850000D03*
X154357500Y-105350000D03*
%TD*%
D17*
%TO.C,R3*%
X139700000Y-93790000D03*
X139700000Y-95440000D03*
%TD*%
D21*
%TO.C,U1*%
X135387500Y-93665000D03*
X135387500Y-94615000D03*
X135387500Y-95565000D03*
X137662500Y-95565000D03*
X137662500Y-93665000D03*
%TD*%
D22*
%TO.C,Y1*%
X168890000Y-111125000D03*
X166390000Y-111125000D03*
%TD*%
D10*
%TO.C,C7*%
X153035000Y-107810000D03*
X153035000Y-109360000D03*
%TD*%
D16*
%TO.C,C3*%
X147955000Y-93140000D03*
X147955000Y-96090000D03*
%TD*%
D15*
%TO.C,C2*%
X142240000Y-93665000D03*
X142240000Y-95565000D03*
%TD*%
D12*
%TO.C,R2*%
X132270000Y-97790000D03*
X130620000Y-97790000D03*
%TD*%
D18*
%TO.C,D1*%
X127395000Y-97790000D03*
X129145000Y-97790000D03*
%TD*%
D23*
%TO.C,C4*%
X168910000Y-95390000D03*
X168910000Y-93840000D03*
%TD*%
%TO.C,C5*%
X151130000Y-95390000D03*
X151130000Y-93840000D03*
%TD*%
D11*
%TO.C,FB2*%
X175895000Y-107467500D03*
X175895000Y-105892500D03*
%TD*%
D24*
%TO.C,Q1*%
X132382500Y-88580000D03*
X132382500Y-86680000D03*
X130507500Y-87630000D03*
%TD*%
D23*
%TO.C,C11*%
X153035000Y-95390000D03*
X153035000Y-93840000D03*
%TD*%
%TO.C,C6*%
X167005000Y-95390000D03*
X167005000Y-93840000D03*
%TD*%
D25*
%TO.C,R9*%
X181610000Y-116395000D03*
X181610000Y-114745000D03*
%TD*%
D17*
%TO.C,R6*%
X139700000Y-97600000D03*
X139700000Y-99250000D03*
%TD*%
D26*
%TO.C,SW1*%
X128180000Y-81915000D03*
X135980000Y-81915000D03*
%TD*%
D17*
%TO.C,R1*%
X132715000Y-93790000D03*
X132715000Y-95440000D03*
%TD*%
D27*
%TO.C,F1*%
X126212500Y-87630000D03*
X127787500Y-87630000D03*
%TD*%
D12*
%TO.C,R4*%
X132270000Y-99695000D03*
X130620000Y-99695000D03*
%TD*%
M02*
