M48
; DRILL file {KiCad (6.0.2)} date Fri 18 Feb 2022 06:14:12 PM EST
; FORMAT={-:-/ absolute / inch / decimal}
; #@! TF.CreationDate,2022-02-18T18:14:12-05:00
; #@! TF.GenerationSoftware,Kicad,Pcbnew,(6.0.2)
; #@! TF.FileFunction,Plated,1,2,PTH
FMAT,2
INCH
; #@! TA.AperFunction,Plated,PTH,ComponentDrill
T1C0.0118
; #@! TA.AperFunction,Plated,PTH,ViaDrill
T2C0.0120
; #@! TA.AperFunction,Plated,PTH,ViaDrill
T3C0.0160
; #@! TA.AperFunction,Plated,PTH,ComponentDrill
T4C0.0256
; #@! TA.AperFunction,Plated,PTH,ComponentDrill
T5C0.0394
; #@! TA.AperFunction,Plated,PTH,ComponentDrill
T6C0.0472
; #@! TA.AperFunction,Plated,PTH,ComponentDrill
T7C0.1063
%
G90
G05
T1
X5.375Y-4.3528
X5.375Y-4.4
X5.425Y-4.2
X5.425Y-4.2472
T2
X5.2Y-4.825
X5.34Y-4.725
X5.445Y-4.6
X5.6Y-4.65
X5.965Y-3.98
X6.05Y-4.185
X6.11Y-4.63
X6.21Y-4.165
X6.28Y-4.31
X6.315Y-3.71
X6.585Y-3.96
X6.6Y-4.06
X6.65Y-3.795
X6.65Y-4.135
X6.725Y-4.06
X6.725Y-4.135
X6.81Y-3.795
X6.81Y-3.83
X7.0Y-3.88
X7.0Y-3.97
X7.15Y-4.28
X7.15Y-4.62
T3
X4.965Y-3.85
X4.965Y-3.925
X4.965Y-4.475
X5.1Y-3.675
X5.105Y-3.225
X5.275Y-3.725
X5.325Y-3.535
X5.5Y-3.95
X5.6Y-3.81
X5.825Y-3.835
X5.89Y-3.755
X5.95Y-3.65
X5.95Y-4.485
X5.99Y-4.185
X6.025Y-3.65
X6.025Y-4.345
X6.575Y-3.65
X6.575Y-3.8
X6.65Y-3.65
X6.65Y-4.275
X6.725Y-4.275
X6.755Y-4.0
X6.825Y-4.305
X6.925Y-4.27
X6.95Y-4.015
T4
X5.3254Y-4.4746
X5.3254Y-4.5246
X5.3254Y-4.5746
X5.3254Y-4.6246
X5.3254Y-4.6746
X5.3754Y-4.4746
X5.3754Y-4.5246
X5.3754Y-4.5746
X5.3754Y-4.6246
X5.3754Y-4.6746
T5
X5.125Y-4.0496
X5.125Y-4.1496
X5.125Y-4.2496
X5.125Y-4.3496
X5.55Y-3.199
X5.55Y-4.799
X5.65Y-3.199
X5.65Y-4.799
X5.75Y-3.199
X5.75Y-4.799
X5.85Y-3.199
X5.85Y-4.799
X5.95Y-3.199
X5.95Y-4.799
X6.05Y-3.199
X6.05Y-4.799
X6.15Y-3.199
X6.15Y-4.799
X6.25Y-3.199
X6.25Y-4.799
X6.35Y-3.199
X6.35Y-4.799
X6.45Y-3.199
X6.45Y-4.799
X6.55Y-3.199
X6.55Y-4.799
X6.65Y-3.199
X6.65Y-4.799
X6.75Y-3.199
X6.75Y-4.799
X6.85Y-3.199
X6.85Y-4.799
X6.95Y-3.199
X6.95Y-4.799
X7.05Y-3.199
X7.05Y-4.799
X7.2778Y-3.4998
X7.2778Y-3.5998
X7.2778Y-3.8504
X7.2778Y-3.9504
X7.2778Y-4.0504
X7.2778Y-4.1504
X7.2778Y-4.3998
X7.2778Y-4.4998
T6
X4.9Y-3.5811
X4.9Y-3.7189
T7
X4.85Y-3.25
X4.85Y-4.75
X7.55Y-3.25
X7.55Y-4.75
T0
M30
