%TF.GenerationSoftware,KiCad,Pcbnew,(6.0.2)*%
%TF.CreationDate,2022-02-18T18:14:02-05:00*%
%TF.ProjectId,EFM32TG11-Core,45464d33-3254-4473-9131-2d436f72652e,rev?*%
%TF.SameCoordinates,Original*%
%TF.FileFunction,Copper,L1,Top*%
%TF.FilePolarity,Positive*%
%FSLAX46Y46*%
G04 Gerber Fmt 4.6, Leading zero omitted, Abs format (unit mm)*
G04 Created by KiCad (PCBNEW (6.0.2)) date 2022-02-18 18:14:02*
%MOMM*%
%LPD*%
G01*
G04 APERTURE LIST*
G04 Aperture macros list*
%AMRoundRect*
0 Rectangle with rounded corners*
0 $1 Rounding radius*
0 $2 $3 $4 $5 $6 $7 $8 $9 X,Y pos of 4 corners*
0 Add a 4 corners polygon primitive as box body*
4,1,4,$2,$3,$4,$5,$6,$7,$8,$9,$2,$3,0*
0 Add four circle primitives for the rounded corners*
1,1,$1+$1,$2,$3*
1,1,$1+$1,$4,$5*
1,1,$1+$1,$6,$7*
1,1,$1+$1,$8,$9*
0 Add four rect primitives between the rounded corners*
20,1,$1+$1,$2,$3,$4,$5,0*
20,1,$1+$1,$4,$5,$6,$7,0*
20,1,$1+$1,$6,$7,$8,$9,0*
20,1,$1+$1,$8,$9,$2,$3,0*%
%AMFreePoly0*
4,1,22,0.500000,-0.750000,0.000000,-0.750000,0.000000,-0.745033,-0.079941,-0.743568,-0.215256,-0.701293,-0.333266,-0.622738,-0.424486,-0.514219,-0.481581,-0.384460,-0.499164,-0.250000,-0.500000,-0.250000,-0.500000,0.250000,-0.499164,0.250000,-0.499963,0.256109,-0.478152,0.396186,-0.417904,0.524511,-0.324060,0.630769,-0.204165,0.706417,-0.067858,0.745374,0.000000,0.744959,0.000000,0.750000,
0.500000,0.750000,0.500000,-0.750000,0.500000,-0.750000,$1*%
%AMFreePoly1*
4,1,20,0.000000,0.744959,0.073905,0.744508,0.209726,0.703889,0.328688,0.626782,0.421226,0.519385,0.479903,0.390333,0.500000,0.250000,0.500000,-0.250000,0.499851,-0.262216,0.476331,-0.402017,0.414519,-0.529596,0.319384,-0.634700,0.198574,-0.708877,0.061801,-0.746166,0.000000,-0.745033,0.000000,-0.750000,-0.500000,-0.750000,-0.500000,0.750000,0.000000,0.750000,0.000000,0.744959,
0.000000,0.744959,$1*%
G04 Aperture macros list end*
%TA.AperFunction,SMDPad,CuDef*%
%ADD10RoundRect,0.225000X-0.250000X0.225000X-0.250000X-0.225000X0.250000X-0.225000X0.250000X0.225000X0*%
%TD*%
%TA.AperFunction,ComponentPad*%
%ADD11R,1.700000X1.700000*%
%TD*%
%TA.AperFunction,ComponentPad*%
%ADD12O,1.700000X1.700000*%
%TD*%
%TA.AperFunction,ComponentPad*%
%ADD13R,2.400000X2.400000*%
%TD*%
%TA.AperFunction,ComponentPad*%
%ADD14C,2.400000*%
%TD*%
%TA.AperFunction,ComponentPad*%
%ADD15C,0.600000*%
%TD*%
%TA.AperFunction,SMDPad,CuDef*%
%ADD16RoundRect,0.218750X0.256250X-0.218750X0.256250X0.218750X-0.256250X0.218750X-0.256250X-0.218750X0*%
%TD*%
%TA.AperFunction,SMDPad,CuDef*%
%ADD17C,1.000000*%
%TD*%
%TA.AperFunction,SMDPad,CuDef*%
%ADD18RoundRect,0.200000X0.200000X0.275000X-0.200000X0.275000X-0.200000X-0.275000X0.200000X-0.275000X0*%
%TD*%
%TA.AperFunction,SMDPad,CuDef*%
%ADD19R,0.900000X0.800000*%
%TD*%
%TA.AperFunction,SMDPad,CuDef*%
%ADD20RoundRect,0.237500X0.237500X-0.287500X0.237500X0.287500X-0.237500X0.287500X-0.237500X-0.287500X0*%
%TD*%
%TA.AperFunction,SMDPad,CuDef*%
%ADD21RoundRect,0.250000X-0.475000X0.250000X-0.475000X-0.250000X0.475000X-0.250000X0.475000X0.250000X0*%
%TD*%
%TA.AperFunction,SMDPad,CuDef*%
%ADD22RoundRect,0.250000X-0.650000X0.325000X-0.650000X-0.325000X0.650000X-0.325000X0.650000X0.325000X0*%
%TD*%
%TA.AperFunction,SMDPad,CuDef*%
%ADD23RoundRect,0.200000X-0.275000X0.200000X-0.275000X-0.200000X0.275000X-0.200000X0.275000X0.200000X0*%
%TD*%
%TA.AperFunction,SMDPad,CuDef*%
%ADD24FreePoly0,270.000000*%
%TD*%
%TA.AperFunction,SMDPad,CuDef*%
%ADD25FreePoly1,270.000000*%
%TD*%
%TA.AperFunction,SMDPad,CuDef*%
%ADD26RoundRect,0.237500X-0.287500X-0.237500X0.287500X-0.237500X0.287500X0.237500X-0.287500X0.237500X0*%
%TD*%
%TA.AperFunction,ComponentPad*%
%ADD27C,5.400000*%
%TD*%
%TA.AperFunction,SMDPad,CuDef*%
%ADD28RoundRect,0.075000X0.075000X-0.662500X0.075000X0.662500X-0.075000X0.662500X-0.075000X-0.662500X0*%
%TD*%
%TA.AperFunction,SMDPad,CuDef*%
%ADD29RoundRect,0.075000X0.662500X-0.075000X0.662500X0.075000X-0.662500X0.075000X-0.662500X-0.075000X0*%
%TD*%
%TA.AperFunction,SMDPad,CuDef*%
%ADD30RoundRect,0.150000X-0.512500X-0.150000X0.512500X-0.150000X0.512500X0.150000X-0.512500X0.150000X0*%
%TD*%
%TA.AperFunction,SMDPad,CuDef*%
%ADD31R,1.000000X1.800000*%
%TD*%
%TA.AperFunction,SMDPad,CuDef*%
%ADD32RoundRect,0.225000X0.250000X-0.225000X0.250000X0.225000X-0.250000X0.225000X-0.250000X-0.225000X0*%
%TD*%
%TA.AperFunction,SMDPad,CuDef*%
%ADD33RoundRect,0.150000X0.587500X0.150000X-0.587500X0.150000X-0.587500X-0.150000X0.587500X-0.150000X0*%
%TD*%
%TA.AperFunction,SMDPad,CuDef*%
%ADD34RoundRect,0.200000X0.275000X-0.200000X0.275000X0.200000X-0.275000X0.200000X-0.275000X-0.200000X0*%
%TD*%
%TA.AperFunction,SMDPad,CuDef*%
%ADD35R,1.500000X1.500000*%
%TD*%
%TA.AperFunction,ComponentPad*%
%ADD36R,1.000000X1.000000*%
%TD*%
%TA.AperFunction,ComponentPad*%
%ADD37O,1.000000X1.000000*%
%TD*%
%TA.AperFunction,SMDPad,CuDef*%
%ADD38RoundRect,0.218750X-0.218750X-0.256250X0.218750X-0.256250X0.218750X0.256250X-0.218750X0.256250X0*%
%TD*%
%TA.AperFunction,ViaPad*%
%ADD39C,0.812800*%
%TD*%
%TA.AperFunction,ViaPad*%
%ADD40C,0.609600*%
%TD*%
%TA.AperFunction,Conductor*%
%ADD41C,0.406400*%
%TD*%
%TA.AperFunction,Conductor*%
%ADD42C,0.203200*%
%TD*%
%TA.AperFunction,Conductor*%
%ADD43C,0.254000*%
%TD*%
%TA.AperFunction,Conductor*%
%ADD44C,0.200000*%
%TD*%
G04 APERTURE END LIST*
%TO.C,NT2*%
G36*
X136825000Y-111760000D02*
G01*
X136225000Y-111760000D01*
X136225000Y-110560000D01*
X136825000Y-110560000D01*
X136825000Y-111760000D01*
G37*
%TO.C,NT1*%
G36*
X138095000Y-107880000D02*
G01*
X137495000Y-107880000D01*
X137495000Y-106680000D01*
X138095000Y-106680000D01*
X138095000Y-107880000D01*
G37*
%TD*%
D10*
%TO.P,C9,1*%
%TO.N,VDDA*%
X168910000Y-105905000D03*
%TO.P,C9,2*%
%TO.N,GND*%
X168910000Y-107455000D03*
%TD*%
D11*
%TO.P,J2,1,Pin_1*%
%TO.N,+3V3*%
X184855000Y-88895000D03*
D12*
%TO.P,J2,2,Pin_2*%
%TO.N,GND*%
X184855000Y-91435000D03*
%TD*%
D13*
%TO.P,J1,1,Pin_1*%
%TO.N,Net-(F1-Pad1)*%
X124460000Y-90960000D03*
D14*
%TO.P,J1,2,Pin_2*%
%TO.N,GND*%
X124460000Y-94460000D03*
%TD*%
D15*
%TO.P,NT2,1,1*%
%TO.N,/SWDIO*%
X136525000Y-111760000D03*
%TO.P,NT2,2,2*%
%TO.N,/RX_{BOOT}*%
X136525000Y-110560000D03*
%TD*%
D16*
%TO.P,FB1,1*%
%TO.N,+3V3*%
X144780000Y-95402500D03*
%TO.P,FB1,2*%
%TO.N,VDD*%
X144780000Y-93827500D03*
%TD*%
D17*
%TO.P,TP3,1,1*%
%TO.N,VDD*%
X144780000Y-92075000D03*
%TD*%
D18*
%TO.P,R7,1*%
%TO.N,/BTLDR*%
X132270000Y-113665000D03*
%TO.P,R7,2*%
%TO.N,Net-(D3-Pad2)*%
X130620000Y-113665000D03*
%TD*%
D19*
%TO.P,Y2,1,1*%
%TO.N,/HFXTALN*%
X174690000Y-101304000D03*
%TO.P,Y2,2,2*%
%TO.N,GND*%
X173290000Y-101304000D03*
%TO.P,Y2,3,3*%
%TO.N,/HFXTALP*%
X173290000Y-102404000D03*
%TO.P,Y2,4,4*%
%TO.N,GND*%
X174690000Y-102404000D03*
%TD*%
D15*
%TO.P,NT1,1,1*%
%TO.N,/SWCLK*%
X137795000Y-106680000D03*
%TO.P,NT1,2,2*%
%TO.N,/TX_{BOOT}*%
X137795000Y-107880000D03*
%TD*%
D10*
%TO.P,C10,1*%
%TO.N,VDDA*%
X170815000Y-105905000D03*
%TO.P,C10,2*%
%TO.N,GND*%
X170815000Y-107455000D03*
%TD*%
D20*
%TO.P,D4,1,K*%
%TO.N,GND*%
X151130000Y-112635000D03*
%TO.P,D4,2,A*%
%TO.N,Net-(D4-Pad2)*%
X151130000Y-110885000D03*
%TD*%
D21*
%TO.P,C1,1*%
%TO.N,Net-(C1-Pad1)*%
X135255000Y-86680000D03*
%TO.P,C1,2*%
%TO.N,GND*%
X135255000Y-88580000D03*
%TD*%
D22*
%TO.P,C8,1*%
%TO.N,VDDA*%
X173355000Y-105205000D03*
%TO.P,C8,2*%
%TO.N,GND*%
X173355000Y-108155000D03*
%TD*%
D23*
%TO.P,R5,1*%
%TO.N,Net-(Q1-Pad1)*%
X129540000Y-90615000D03*
%TO.P,R5,2*%
%TO.N,GND*%
X129540000Y-92265000D03*
%TD*%
%TO.P,R10,1*%
%TO.N,+3V3*%
X181610000Y-109665000D03*
%TO.P,R10,2*%
%TO.N,/I2C1_{SCL}*%
X181610000Y-111315000D03*
%TD*%
D24*
%TO.P,JP1,1,A*%
%TO.N,+3V3*%
X134620000Y-101585000D03*
D25*
%TO.P,JP1,2,B*%
%TO.N,/SWCLK*%
X134620000Y-102885000D03*
%TD*%
D26*
%TO.P,D2,1,K*%
%TO.N,GND*%
X127395000Y-99695000D03*
%TO.P,D2,2,A*%
%TO.N,Net-(D2-Pad2)*%
X129145000Y-99695000D03*
%TD*%
D27*
%TO.P,H3,1,1*%
%TO.N,GND*%
X191770000Y-82550000D03*
%TD*%
D11*
%TO.P,J4,1,Pin_1*%
%TO.N,/I2C1_{SCL}*%
X184855000Y-111755000D03*
D12*
%TO.P,J4,2,Pin_2*%
%TO.N,/I2C1_{SDA}*%
X184855000Y-114295000D03*
%TD*%
D27*
%TO.P,H1,1,1*%
%TO.N,GND*%
X123190000Y-82550000D03*
%TD*%
D26*
%TO.P,D3,1,K*%
%TO.N,GND*%
X127395000Y-113665000D03*
%TO.P,D3,2,A*%
%TO.N,Net-(D3-Pad2)*%
X129145000Y-113665000D03*
%TD*%
D23*
%TO.P,R8,1*%
%TO.N,/USR*%
X151130000Y-107760000D03*
%TO.P,R8,2*%
%TO.N,Net-(D4-Pad2)*%
X151130000Y-109410000D03*
%TD*%
D28*
%TO.P,U2,1,PA0*%
%TO.N,/PA0*%
X156270000Y-107262500D03*
%TO.P,U2,2,PA1*%
%TO.N,/PA1*%
X156770000Y-107262500D03*
%TO.P,U2,3,PA2*%
%TO.N,/PA2*%
X157270000Y-107262500D03*
%TO.P,U2,4,PA3*%
%TO.N,/PA3*%
X157770000Y-107262500D03*
%TO.P,U2,5,PA4*%
%TO.N,/PA4*%
X158270000Y-107262500D03*
%TO.P,U2,6,PA5*%
%TO.N,/PA5*%
X158770000Y-107262500D03*
%TO.P,U2,7,IOVDD_{0}*%
%TO.N,VDD*%
X159270000Y-107262500D03*
%TO.P,U2,8,VSS*%
%TO.N,GND*%
X159770000Y-107262500D03*
%TO.P,U2,9,PB3*%
%TO.N,/PB3*%
X160270000Y-107262500D03*
%TO.P,U2,10,PB4*%
%TO.N,/PB4*%
X160770000Y-107262500D03*
%TO.P,U2,11,PB5*%
%TO.N,/PB5*%
X161270000Y-107262500D03*
%TO.P,U2,12,PB6*%
%TO.N,/PB6*%
X161770000Y-107262500D03*
%TO.P,U2,13,PC4*%
%TO.N,/I2C1_{SDA}*%
X162270000Y-107262500D03*
%TO.P,U2,14,PC5*%
%TO.N,/I2C1_{SCL}*%
X162770000Y-107262500D03*
%TO.P,U2,15,LFXTALP*%
%TO.N,/LFXTALP*%
X163270000Y-107262500D03*
%TO.P,U2,16,LFXTALN*%
%TO.N,/LFXTALN*%
X163770000Y-107262500D03*
D29*
%TO.P,U2,17,PA12*%
%TO.N,/PA12*%
X165682500Y-105350000D03*
%TO.P,U2,18,PA13(5V)*%
%TO.N,/PA13*%
X165682500Y-104850000D03*
%TO.P,U2,19,PA14*%
%TO.N,/PA14*%
X165682500Y-104350000D03*
%TO.P,U2,20,~{RST}*%
%TO.N,/~{RST}*%
X165682500Y-103850000D03*
%TO.P,U2,21,PB11*%
%TO.N,/PB11*%
X165682500Y-103350000D03*
%TO.P,U2,22,VSS*%
%TO.N,GND*%
X165682500Y-102850000D03*
%TO.P,U2,23,AVDD*%
%TO.N,VDDA*%
X165682500Y-102350000D03*
%TO.P,U2,24,HFXTALP*%
%TO.N,/HFXTALP*%
X165682500Y-101850000D03*
%TO.P,U2,25,HFXTALN*%
%TO.N,/HFXTALN*%
X165682500Y-101350000D03*
%TO.P,U2,26,IOVDD_{0}*%
%TO.N,VDD*%
X165682500Y-100850000D03*
%TO.P,U2,27,AVDD*%
%TO.N,VDDA*%
X165682500Y-100350000D03*
%TO.P,U2,28,PD0(5V)*%
%TO.N,/UART1_{TX}*%
X165682500Y-99850000D03*
%TO.P,U2,29,PD1*%
%TO.N,/UART1_{RX}*%
X165682500Y-99350000D03*
%TO.P,U2,30,PD2(5V)*%
%TO.N,/PD2*%
X165682500Y-98850000D03*
%TO.P,U2,31,PD3*%
%TO.N,/PD3*%
X165682500Y-98350000D03*
%TO.P,U2,32,PD4*%
%TO.N,/UART1_{CTS}*%
X165682500Y-97850000D03*
D28*
%TO.P,U2,33,PD5*%
%TO.N,/UART1_{RTS}*%
X163770000Y-95937500D03*
%TO.P,U2,34,PD6*%
%TO.N,/PD6*%
X163270000Y-95937500D03*
%TO.P,U2,35,PD7*%
%TO.N,/PD7*%
X162770000Y-95937500D03*
%TO.P,U2,36,PD8*%
%TO.N,/PD8*%
X162270000Y-95937500D03*
%TO.P,U2,37,PC6*%
%TO.N,/PC6*%
X161770000Y-95937500D03*
%TO.P,U2,38,PC7*%
%TO.N,/PC7*%
X161270000Y-95937500D03*
%TO.P,U2,39,DVDD*%
%TO.N,VDD*%
X160770000Y-95937500D03*
%TO.P,U2,40,DCPL*%
%TO.N,Net-(C11-Pad1)*%
X160270000Y-95937500D03*
%TO.P,U2,41,PE4*%
%TO.N,/PE4*%
X159770000Y-95937500D03*
%TO.P,U2,42,PE5*%
%TO.N,/PE5*%
X159270000Y-95937500D03*
%TO.P,U2,43,PE6*%
%TO.N,/PE6*%
X158770000Y-95937500D03*
%TO.P,U2,44,PE7*%
%TO.N,/PE7*%
X158270000Y-95937500D03*
%TO.P,U2,45,PC12(5V)*%
%TO.N,/PC12*%
X157770000Y-95937500D03*
%TO.P,U2,46,PC13(5V)*%
%TO.N,/PC13*%
X157270000Y-95937500D03*
%TO.P,U2,47,PC14(5V)*%
%TO.N,/PC14*%
X156770000Y-95937500D03*
%TO.P,U2,48,PC15(5V)*%
%TO.N,/PC15*%
X156270000Y-95937500D03*
D29*
%TO.P,U2,49,PF0_SWCLK/TCK_TX_{BOOT}*%
%TO.N,/TX_{BOOT}*%
X154357500Y-97850000D03*
%TO.P,U2,50,PF1_SWDIO/TMS_RX_{BOOT}*%
%TO.N,/RX_{BOOT}*%
X154357500Y-98350000D03*
%TO.P,U2,51,PF2_TDO*%
%TO.N,/TDO_{JTAG}*%
X154357500Y-98850000D03*
%TO.P,U2,52,PF3*%
%TO.N,/BTLDR*%
X154357500Y-99350000D03*
%TO.P,U2,53,PF4*%
%TO.N,unconnected-(U2-Pad53)*%
X154357500Y-99850000D03*
%TO.P,U2,54,PF5_TDI*%
%TO.N,/TDI_{JTAG}*%
X154357500Y-100350000D03*
%TO.P,U2,55,IOVDD_{0}*%
%TO.N,VDD*%
X154357500Y-100850000D03*
%TO.P,U2,56,VSS*%
%TO.N,GND*%
X154357500Y-101350000D03*
%TO.P,U2,57,PE8*%
%TO.N,/PE8*%
X154357500Y-101850000D03*
%TO.P,U2,58,PE9*%
%TO.N,/PE9*%
X154357500Y-102350000D03*
%TO.P,U2,59,PE10*%
%TO.N,/PE10*%
X154357500Y-102850000D03*
%TO.P,U2,60,PE11*%
%TO.N,/PE11*%
X154357500Y-103350000D03*
%TO.P,U2,61,PE12*%
%TO.N,/PE12*%
X154357500Y-103850000D03*
%TO.P,U2,62,PE13*%
%TO.N,/USR*%
X154357500Y-104350000D03*
%TO.P,U2,63,PE14*%
%TO.N,/PE14*%
X154357500Y-104850000D03*
%TO.P,U2,64,PE15*%
%TO.N,/PE15*%
X154357500Y-105350000D03*
%TD*%
D23*
%TO.P,R3,1*%
%TO.N,+3V3*%
X139700000Y-93790000D03*
%TO.P,R3,2*%
%TO.N,Net-(R3-Pad2)*%
X139700000Y-95440000D03*
%TD*%
D11*
%TO.P,J7,1,Pin_1*%
%TO.N,/PE8*%
X140970000Y-121895000D03*
D12*
%TO.P,J7,2,Pin_2*%
%TO.N,/PE9*%
X143510000Y-121895000D03*
%TO.P,J7,3,Pin_3*%
%TO.N,/PE10*%
X146050000Y-121895000D03*
%TO.P,J7,4,Pin_4*%
%TO.N,/PE11*%
X148590000Y-121895000D03*
%TO.P,J7,5,Pin_5*%
%TO.N,/PE12*%
X151130000Y-121895000D03*
%TO.P,J7,6,Pin_6*%
%TO.N,/PE15*%
X153670000Y-121895000D03*
%TO.P,J7,7,Pin_7*%
%TO.N,/PA0*%
X156210000Y-121895000D03*
%TO.P,J7,8,Pin_8*%
%TO.N,/PA1*%
X158750000Y-121895000D03*
%TO.P,J7,9,Pin_9*%
%TO.N,/PA2*%
X161290000Y-121895000D03*
%TO.P,J7,10,Pin_10*%
%TO.N,/PA3*%
X163830000Y-121895000D03*
%TO.P,J7,11,Pin_11*%
%TO.N,/PA4*%
X166370000Y-121895000D03*
%TO.P,J7,12,Pin_12*%
%TO.N,/PA5*%
X168910000Y-121895000D03*
%TO.P,J7,13,Pin_13*%
%TO.N,/PB3*%
X171450000Y-121895000D03*
%TO.P,J7,14,Pin_14*%
%TO.N,/PB4*%
X173990000Y-121895000D03*
%TO.P,J7,15,Pin_15*%
%TO.N,/PB5*%
X176530000Y-121895000D03*
%TO.P,J7,16,Pin_16*%
%TO.N,/PB6*%
X179070000Y-121895000D03*
%TD*%
D30*
%TO.P,U1,1,IN*%
%TO.N,Net-(C1-Pad1)*%
X135387500Y-93665000D03*
%TO.P,U1,2,GND*%
%TO.N,GND*%
X135387500Y-94615000D03*
%TO.P,U1,3,EN*%
%TO.N,Net-(R1-Pad2)*%
X135387500Y-95565000D03*
%TO.P,U1,4,FB*%
%TO.N,Net-(R3-Pad2)*%
X137662500Y-95565000D03*
%TO.P,U1,5,OUT*%
%TO.N,+3V3*%
X137662500Y-93665000D03*
%TD*%
D31*
%TO.P,Y1,1,1*%
%TO.N,/LFXTALN*%
X168890000Y-111125000D03*
%TO.P,Y1,2,2*%
%TO.N,/LFXTALP*%
X166390000Y-111125000D03*
%TD*%
D10*
%TO.P,C7,1*%
%TO.N,VDD*%
X153035000Y-107810000D03*
%TO.P,C7,2*%
%TO.N,GND*%
X153035000Y-109360000D03*
%TD*%
D17*
%TO.P,TP4,1,1*%
%TO.N,VDDA*%
X178435000Y-106680000D03*
%TD*%
D11*
%TO.P,J5,1,Pin_1*%
%TO.N,/RX_{BOOT}*%
X130175000Y-110480000D03*
D12*
%TO.P,J5,2,Pin_2*%
%TO.N,/TX_{BOOT}*%
X130175000Y-107940000D03*
%TO.P,J5,3,Pin_3*%
%TO.N,+3V3*%
X130175000Y-105400000D03*
%TO.P,J5,4,Pin_4*%
%TO.N,GND*%
X130175000Y-102860000D03*
%TD*%
D22*
%TO.P,C3,1*%
%TO.N,VDD*%
X147955000Y-93140000D03*
%TO.P,C3,2*%
%TO.N,GND*%
X147955000Y-96090000D03*
%TD*%
D21*
%TO.P,C2,1*%
%TO.N,+3V3*%
X142240000Y-93665000D03*
%TO.P,C2,2*%
%TO.N,GND*%
X142240000Y-95565000D03*
%TD*%
D18*
%TO.P,R2,1*%
%TO.N,Net-(C1-Pad1)*%
X132270000Y-97790000D03*
%TO.P,R2,2*%
%TO.N,Net-(D1-Pad2)*%
X130620000Y-97790000D03*
%TD*%
D11*
%TO.P,J8,1,Pin_1*%
%TO.N,/PC15*%
X140970000Y-81255000D03*
D12*
%TO.P,J8,2,Pin_2*%
%TO.N,/PC14*%
X143510000Y-81255000D03*
%TO.P,J8,3,Pin_3*%
%TO.N,/PC13*%
X146050000Y-81255000D03*
%TO.P,J8,4,Pin_4*%
%TO.N,/PC12*%
X148590000Y-81255000D03*
%TO.P,J8,5,Pin_5*%
%TO.N,/PE7*%
X151130000Y-81255000D03*
%TO.P,J8,6,Pin_6*%
%TO.N,/PE6*%
X153670000Y-81255000D03*
%TO.P,J8,7,Pin_7*%
%TO.N,/PE5*%
X156210000Y-81255000D03*
%TO.P,J8,8,Pin_8*%
%TO.N,/PE4*%
X158750000Y-81255000D03*
%TO.P,J8,9,Pin_9*%
%TO.N,/PC7*%
X161290000Y-81255000D03*
%TO.P,J8,10,Pin_10*%
%TO.N,/PC6*%
X163830000Y-81255000D03*
%TO.P,J8,11,Pin_11*%
%TO.N,/PD8*%
X166370000Y-81255000D03*
%TO.P,J8,12,Pin_12*%
%TO.N,/PD7*%
X168910000Y-81255000D03*
%TO.P,J8,13,Pin_13*%
%TO.N,/PD6*%
X171450000Y-81255000D03*
%TO.P,J8,14,Pin_14*%
%TO.N,/PD3*%
X173990000Y-81255000D03*
%TO.P,J8,15,Pin_15*%
%TO.N,/PD2*%
X176530000Y-81255000D03*
%TO.P,J8,16,Pin_16*%
%TO.N,/PB11*%
X179070000Y-81255000D03*
%TD*%
D26*
%TO.P,D1,1,K*%
%TO.N,GND*%
X127395000Y-97790000D03*
%TO.P,D1,2,A*%
%TO.N,Net-(D1-Pad2)*%
X129145000Y-97790000D03*
%TD*%
D27*
%TO.P,H2,1,1*%
%TO.N,GND*%
X123190000Y-120650000D03*
%TD*%
D17*
%TO.P,TP2,1,1*%
%TO.N,+3V3*%
X139700000Y-92075000D03*
%TD*%
%TO.P,TP1,1,1*%
%TO.N,Net-(C1-Pad1)*%
X132715000Y-92075000D03*
%TD*%
D11*
%TO.P,J3,1,Pin_1*%
%TO.N,/UART1_{RX}*%
X184855000Y-97800000D03*
D12*
%TO.P,J3,2,Pin_2*%
%TO.N,/UART1_{TX}*%
X184855000Y-100340000D03*
%TO.P,J3,3,Pin_3*%
%TO.N,/UART1_{RTS}*%
X184855000Y-102880000D03*
%TO.P,J3,4,Pin_4*%
%TO.N,/UART1_{CTS}*%
X184855000Y-105420000D03*
%TD*%
D32*
%TO.P,C4,1*%
%TO.N,VDD*%
X168910000Y-95390000D03*
%TO.P,C4,2*%
%TO.N,GND*%
X168910000Y-93840000D03*
%TD*%
%TO.P,C5,1*%
%TO.N,VDD*%
X151130000Y-95390000D03*
%TO.P,C5,2*%
%TO.N,GND*%
X151130000Y-93840000D03*
%TD*%
D27*
%TO.P,H4,1,1*%
%TO.N,GND*%
X191770000Y-120650000D03*
%TD*%
D16*
%TO.P,FB2,1*%
%TO.N,VDD*%
X175895000Y-107467500D03*
%TO.P,FB2,2*%
%TO.N,VDDA*%
X175895000Y-105892500D03*
%TD*%
D33*
%TO.P,Q1,1,G*%
%TO.N,Net-(Q1-Pad1)*%
X132382500Y-88580000D03*
%TO.P,Q1,2,S*%
%TO.N,Net-(C1-Pad1)*%
X132382500Y-86680000D03*
%TO.P,Q1,3,D*%
%TO.N,Net-(F1-Pad2)*%
X130507500Y-87630000D03*
%TD*%
D32*
%TO.P,C11,1*%
%TO.N,Net-(C11-Pad1)*%
X153035000Y-95390000D03*
%TO.P,C11,2*%
%TO.N,GND*%
X153035000Y-93840000D03*
%TD*%
%TO.P,C6,1*%
%TO.N,VDD*%
X167005000Y-95390000D03*
%TO.P,C6,2*%
%TO.N,GND*%
X167005000Y-93840000D03*
%TD*%
D34*
%TO.P,R9,1*%
%TO.N,+3V3*%
X181610000Y-116395000D03*
%TO.P,R9,2*%
%TO.N,/I2C1_{SDA}*%
X181610000Y-114745000D03*
%TD*%
D23*
%TO.P,R6,1*%
%TO.N,Net-(R3-Pad2)*%
X139700000Y-97600000D03*
%TO.P,R6,2*%
%TO.N,GND*%
X139700000Y-99250000D03*
%TD*%
D35*
%TO.P,SW1,1,1*%
%TO.N,GND*%
X128180000Y-81915000D03*
%TO.P,SW1,2,2*%
%TO.N,/~{RST}*%
X135980000Y-81915000D03*
%TD*%
D23*
%TO.P,R1,1*%
%TO.N,Net-(C1-Pad1)*%
X132715000Y-93790000D03*
%TO.P,R1,2*%
%TO.N,Net-(R1-Pad2)*%
X132715000Y-95440000D03*
%TD*%
D36*
%TO.P,J6,1,VTref*%
%TO.N,+3V3*%
X135265000Y-113655000D03*
D37*
%TO.P,J6,2,SWDIO/TMS*%
%TO.N,/SWDIO*%
X136535000Y-113655000D03*
%TO.P,J6,3,GND*%
%TO.N,GND*%
X135265000Y-114925000D03*
%TO.P,J6,4,SWDCLK/TCK*%
%TO.N,/SWCLK*%
X136535000Y-114925000D03*
%TO.P,J6,5,GND*%
%TO.N,GND*%
X135265000Y-116195000D03*
%TO.P,J6,6,SWO/TDO*%
%TO.N,/TDO_{JTAG}*%
X136535000Y-116195000D03*
%TO.P,J6,7,KEY*%
%TO.N,unconnected-(J6-Pad7)*%
X135265000Y-117465000D03*
%TO.P,J6,8,NC/TDI*%
%TO.N,/TDI_{JTAG}*%
X136535000Y-117465000D03*
%TO.P,J6,9,GNDDetect*%
%TO.N,GND*%
X135265000Y-118735000D03*
%TO.P,J6,10,~{RESET}*%
%TO.N,/~{RST}*%
X136535000Y-118735000D03*
%TD*%
D38*
%TO.P,F1,1*%
%TO.N,Net-(F1-Pad1)*%
X126212500Y-87630000D03*
%TO.P,F1,2*%
%TO.N,Net-(F1-Pad2)*%
X127787500Y-87630000D03*
%TD*%
D18*
%TO.P,R4,1*%
%TO.N,+3V3*%
X132270000Y-99695000D03*
%TO.P,R4,2*%
%TO.N,Net-(D2-Pad2)*%
X130620000Y-99695000D03*
%TD*%
D39*
%TO.N,GND*%
X153035000Y-110363000D03*
D40*
X167640000Y-103124000D03*
D39*
X142240000Y-96774000D03*
X126111000Y-113665000D03*
D40*
X151511000Y-101092000D03*
D39*
X168910000Y-108585000D03*
X153035000Y-92710000D03*
X129667000Y-81915000D03*
X173355000Y-109347000D03*
X151130000Y-92710000D03*
X135255000Y-89789000D03*
X147955000Y-97409000D03*
X133985000Y-94615000D03*
X168910000Y-92710000D03*
X171577000Y-101600000D03*
X151130000Y-113919000D03*
X129540000Y-93345000D03*
X167005000Y-92710000D03*
X139700000Y-100330000D03*
X176530000Y-101981000D03*
X170815000Y-108585000D03*
D40*
X159512000Y-109474000D03*
D39*
X126111000Y-97790000D03*
X126111000Y-99695000D03*
D40*
%TO.N,+3V3*%
X132080000Y-122555000D03*
X181610000Y-117348000D03*
X181610000Y-108712000D03*
%TO.N,VDD*%
X157734000Y-105791000D03*
X160401000Y-94234000D03*
X168910000Y-96393000D03*
D39*
X152146000Y-106299000D03*
X149606000Y-95377000D03*
X175895000Y-108458000D03*
X167005000Y-96520000D03*
D40*
X153670000Y-106299000D03*
%TO.N,VDDA*%
X167258998Y-100584000D03*
X170815000Y-105029000D03*
X170815000Y-103124000D03*
X168910000Y-105029000D03*
%TO.N,/PB11*%
X177800000Y-100838000D03*
X177800000Y-98552000D03*
%TO.N,/~{RST}*%
X142240000Y-118110000D03*
X155194000Y-117602000D03*
%TO.N,/BTLDR*%
X135636000Y-120015000D03*
X138303000Y-116840000D03*
%TO.N,/UART1_{RTS}*%
X172974000Y-96393000D03*
%TO.N,/UART1_{CTS}*%
X172974000Y-97282000D03*
%TD*%
D41*
%TO.N,Net-(C1-Pad1)*%
X132840000Y-93665000D02*
X132715000Y-93790000D01*
X136525000Y-86995000D02*
X136210000Y-86680000D01*
X132715000Y-92075000D02*
X132715000Y-93790000D01*
X132715000Y-93790000D02*
X132016000Y-93790000D01*
X132270000Y-96710000D02*
X132270000Y-97790000D01*
X136210000Y-86680000D02*
X135255000Y-86680000D01*
X135387500Y-93665000D02*
X135387500Y-91434500D01*
X132016000Y-93790000D02*
X131572000Y-94234000D01*
X136525000Y-90297000D02*
X136525000Y-86995000D01*
X135387500Y-91434500D02*
X136525000Y-90297000D01*
X131572000Y-94234000D02*
X131572000Y-96012000D01*
X132382500Y-86680000D02*
X135255000Y-86680000D01*
X135387500Y-93665000D02*
X132840000Y-93665000D01*
X131572000Y-96012000D02*
X132270000Y-96710000D01*
D42*
%TO.N,GND*%
X167132000Y-103124000D02*
X167640000Y-103124000D01*
X152658000Y-101350000D02*
X152400000Y-101092000D01*
D41*
X172508000Y-101304000D02*
X172212000Y-101600000D01*
X127395000Y-113665000D02*
X126111000Y-113665000D01*
X173355000Y-108155000D02*
X173355000Y-109347000D01*
X168910000Y-93840000D02*
X168910000Y-92710000D01*
D42*
X173290000Y-101304000D02*
X173440000Y-101304000D01*
D41*
X153035000Y-93840000D02*
X153035000Y-92710000D01*
X175345000Y-102404000D02*
X175768000Y-101981000D01*
X135255000Y-88580000D02*
X135255000Y-89789000D01*
D42*
X166858000Y-102850000D02*
X167132000Y-103124000D01*
D43*
X173440000Y-101304000D02*
X174540000Y-102404000D01*
D42*
X159512000Y-108839000D02*
X159512000Y-109474000D01*
D41*
X139700000Y-99250000D02*
X139700000Y-100330000D01*
X151130000Y-112635000D02*
X151130000Y-113919000D01*
X174690000Y-102404000D02*
X175345000Y-102404000D01*
X127395000Y-97790000D02*
X126111000Y-97790000D01*
X153035000Y-109360000D02*
X153035000Y-110363000D01*
X127395000Y-99695000D02*
X126111000Y-99695000D01*
X128180000Y-81915000D02*
X129667000Y-81915000D01*
X175768000Y-101981000D02*
X176530000Y-101981000D01*
D42*
X165682500Y-102850000D02*
X166858000Y-102850000D01*
D41*
X167005000Y-93840000D02*
X167005000Y-92710000D01*
X170815000Y-107455000D02*
X170815000Y-108585000D01*
X142240000Y-95565000D02*
X142240000Y-96774000D01*
X151130000Y-93840000D02*
X151130000Y-92710000D01*
D42*
X154357500Y-101350000D02*
X152658000Y-101350000D01*
D41*
X129540000Y-92265000D02*
X129540000Y-93345000D01*
X168910000Y-107455000D02*
X168910000Y-108585000D01*
D42*
X152400000Y-101092000D02*
X151511000Y-101092000D01*
X174540000Y-102404000D02*
X174690000Y-102404000D01*
D41*
X147955000Y-96090000D02*
X147955000Y-97409000D01*
X172212000Y-101600000D02*
X171577000Y-101600000D01*
X173290000Y-101304000D02*
X172508000Y-101304000D01*
D42*
X159770000Y-108581000D02*
X159512000Y-108839000D01*
D41*
X135387500Y-94615000D02*
X133985000Y-94615000D01*
D42*
X159770000Y-107262500D02*
X159770000Y-108581000D01*
D41*
%TO.N,+3V3*%
X134747000Y-112268000D02*
X135265000Y-112786000D01*
X128915000Y-105400000D02*
X128397000Y-105918000D01*
X131455000Y-105400000D02*
X132715000Y-104140000D01*
X130175000Y-105400000D02*
X128915000Y-105400000D01*
X133365000Y-101585000D02*
X134620000Y-101585000D01*
X137145000Y-101585000D02*
X143017000Y-101585000D01*
X135265000Y-112786000D02*
X135265000Y-113655000D01*
X128397000Y-105918000D02*
X128397000Y-111506000D01*
X188468000Y-90551000D02*
X186812000Y-88895000D01*
X181610000Y-119634000D02*
X181610000Y-117348000D01*
X129159000Y-112268000D02*
X134747000Y-112268000D01*
X185293000Y-119634000D02*
X188468000Y-116459000D01*
X133223000Y-123698000D02*
X132080000Y-122555000D01*
X143017000Y-101585000D02*
X144780000Y-99822000D01*
X139700000Y-92075000D02*
X139700000Y-93790000D01*
X128397000Y-111506000D02*
X129159000Y-112268000D01*
X144780000Y-95402500D02*
X144043500Y-95402500D01*
X143637000Y-94041000D02*
X143261000Y-93665000D01*
X181610000Y-108712000D02*
X181610000Y-109665000D01*
X181610000Y-117348000D02*
X181610000Y-116395000D01*
X139825000Y-93665000D02*
X139700000Y-93790000D01*
X132715000Y-104140000D02*
X132715000Y-102235000D01*
X181610000Y-119634000D02*
X181610000Y-121920000D01*
X181610000Y-121920000D02*
X179832000Y-123698000D01*
X137160000Y-101570000D02*
X137145000Y-101585000D01*
X136525000Y-99695000D02*
X137160000Y-100330000D01*
X188468000Y-116459000D02*
X188468000Y-90551000D01*
X142240000Y-93665000D02*
X139825000Y-93665000D01*
X179832000Y-123698000D02*
X133223000Y-123698000D01*
X137662500Y-93665000D02*
X139575000Y-93665000D01*
X139575000Y-93665000D02*
X139700000Y-93790000D01*
X181610000Y-119634000D02*
X185293000Y-119634000D01*
X130175000Y-105400000D02*
X131455000Y-105400000D01*
X134620000Y-101585000D02*
X137145000Y-101585000D01*
X132715000Y-102235000D02*
X133365000Y-101585000D01*
X132270000Y-99695000D02*
X136525000Y-99695000D01*
X144780000Y-99822000D02*
X144780000Y-95402500D01*
X137160000Y-100330000D02*
X137160000Y-101570000D01*
X143261000Y-93665000D02*
X142240000Y-93665000D01*
X144043500Y-95402500D02*
X143637000Y-94996000D01*
X186812000Y-88895000D02*
X184855000Y-88895000D01*
X143637000Y-94996000D02*
X143637000Y-94041000D01*
D42*
%TO.N,VDD*%
X159270000Y-107262500D02*
X159270000Y-106184000D01*
X153035000Y-106934000D02*
X153670000Y-106299000D01*
X151130000Y-95390000D02*
X151130000Y-96012000D01*
D41*
X144780000Y-92075000D02*
X144780000Y-93827500D01*
D42*
X168910000Y-95390000D02*
X168910000Y-96393000D01*
X151130000Y-96012000D02*
X152273000Y-97155000D01*
D41*
X144780000Y-93827500D02*
X145821500Y-93827500D01*
X167005000Y-95390000D02*
X168910000Y-95390000D01*
D42*
X165468000Y-95390000D02*
X167005000Y-95390000D01*
X155194000Y-97155000D02*
X155702000Y-97663000D01*
D41*
X167005000Y-95390000D02*
X167005000Y-96520000D01*
X147955000Y-93140000D02*
X149401000Y-93140000D01*
D42*
X160401000Y-94615000D02*
X160401000Y-94234000D01*
X160770000Y-95937500D02*
X160770000Y-94984000D01*
X164465000Y-96393000D02*
X165468000Y-95390000D01*
D41*
X149606000Y-93345000D02*
X149606000Y-95377000D01*
X151117000Y-95377000D02*
X149606000Y-95377000D01*
X152400000Y-107823000D02*
X152146000Y-107569000D01*
D42*
X165682500Y-100850000D02*
X164731000Y-100850000D01*
X155309000Y-100850000D02*
X154357500Y-100850000D01*
D41*
X145821500Y-93827500D02*
X146509000Y-93140000D01*
D42*
X155702000Y-97663000D02*
X155702000Y-100457000D01*
X153035000Y-107823000D02*
X153035000Y-106934000D01*
X160770000Y-94984000D02*
X160401000Y-94615000D01*
D41*
X153035000Y-107823000D02*
X152400000Y-107823000D01*
D42*
X158877000Y-105791000D02*
X157734000Y-105791000D01*
D41*
X151130000Y-95390000D02*
X151117000Y-95377000D01*
D42*
X155702000Y-100457000D02*
X155309000Y-100850000D01*
X164465000Y-100584000D02*
X164465000Y-96393000D01*
X159270000Y-106184000D02*
X158877000Y-105791000D01*
D41*
X146509000Y-93140000D02*
X147955000Y-93140000D01*
X149401000Y-93140000D02*
X149606000Y-93345000D01*
D42*
X152273000Y-97155000D02*
X155194000Y-97155000D01*
D41*
X175895000Y-107467500D02*
X175895000Y-108458000D01*
D42*
X164731000Y-100850000D02*
X164465000Y-100584000D01*
D41*
X152146000Y-107569000D02*
X152146000Y-106299000D01*
%TO.N,VDDA*%
X177012500Y-105892500D02*
X177800000Y-106680000D01*
X170815000Y-105905000D02*
X168910000Y-105905000D01*
X177800000Y-106680000D02*
X178435000Y-106680000D01*
X175895000Y-105892500D02*
X175234500Y-105892500D01*
D42*
X165682500Y-100350000D02*
X166517000Y-100350000D01*
X170041000Y-102350000D02*
X170815000Y-103124000D01*
D41*
X170828000Y-105918000D02*
X170815000Y-105905000D01*
D42*
X166517000Y-100350000D02*
X166751000Y-100584000D01*
D41*
X172163000Y-105205000D02*
X171450000Y-105918000D01*
X175234500Y-105892500D02*
X174547000Y-105205000D01*
D42*
X170815000Y-105029000D02*
X170815000Y-105905000D01*
X165682500Y-102350000D02*
X170041000Y-102350000D01*
D41*
X171450000Y-105918000D02*
X170828000Y-105918000D01*
X175895000Y-105892500D02*
X177012500Y-105892500D01*
D42*
X166751000Y-100584000D02*
X167258998Y-100584000D01*
D41*
X174547000Y-105205000D02*
X173355000Y-105205000D01*
D42*
X168910000Y-105029000D02*
X168910000Y-105905000D01*
D41*
X173355000Y-105205000D02*
X172163000Y-105205000D01*
D42*
%TO.N,Net-(C11-Pad1)*%
X160270000Y-96905000D02*
X160020000Y-97155000D01*
X153035000Y-96012000D02*
X153035000Y-95390000D01*
X155194000Y-96520000D02*
X153543000Y-96520000D01*
X160270000Y-95937500D02*
X160270000Y-96905000D01*
X153543000Y-96520000D02*
X153035000Y-96012000D01*
X155829000Y-97155000D02*
X155194000Y-96520000D01*
X160020000Y-97155000D02*
X155829000Y-97155000D01*
D41*
%TO.N,Net-(D1-Pad2)*%
X130620000Y-97790000D02*
X129145000Y-97790000D01*
%TO.N,Net-(D2-Pad2)*%
X130620000Y-99695000D02*
X129145000Y-99695000D01*
%TO.N,Net-(D3-Pad2)*%
X129145000Y-113665000D02*
X130620000Y-113665000D01*
%TO.N,Net-(D4-Pad2)*%
X151130000Y-109410000D02*
X151130000Y-110885000D01*
%TO.N,Net-(F1-Pad1)*%
X124460000Y-88265000D02*
X125095000Y-87630000D01*
X124460000Y-90960000D02*
X124460000Y-88265000D01*
X125095000Y-87630000D02*
X126212500Y-87630000D01*
%TO.N,Net-(F1-Pad2)*%
X130507500Y-87630000D02*
X127787500Y-87630000D01*
D42*
%TO.N,/PB4*%
X160770000Y-107262500D02*
X160770000Y-111240000D01*
X170434000Y-114808000D02*
X173990000Y-118364000D01*
X164338000Y-114808000D02*
X170434000Y-114808000D01*
X160770000Y-111240000D02*
X164338000Y-114808000D01*
X173990000Y-118364000D02*
X173990000Y-121895000D01*
%TO.N,/PA0*%
X156210000Y-107322500D02*
X156210000Y-121895000D01*
X156270000Y-107262500D02*
X156210000Y-107322500D01*
%TO.N,/PB5*%
X161270000Y-107262500D02*
X161270000Y-110978000D01*
X176530000Y-118872000D02*
X176530000Y-121895000D01*
X164592000Y-114300000D02*
X171958000Y-114300000D01*
X161270000Y-110978000D02*
X164592000Y-114300000D01*
X171958000Y-114300000D02*
X176530000Y-118872000D01*
%TO.N,/PA1*%
X158750000Y-113792000D02*
X156770000Y-111812000D01*
X156770000Y-111812000D02*
X156770000Y-107262500D01*
X158750000Y-121895000D02*
X158750000Y-113792000D01*
%TO.N,/PB6*%
X179070000Y-119380000D02*
X173482000Y-113792000D01*
X179070000Y-121895000D02*
X179070000Y-119380000D01*
X173482000Y-113792000D02*
X164846000Y-113792000D01*
X164846000Y-113792000D02*
X161770000Y-110716000D01*
X161770000Y-110716000D02*
X161770000Y-107262500D01*
%TO.N,/PA2*%
X157270000Y-111550000D02*
X161290000Y-115570000D01*
X157270000Y-107262500D02*
X157270000Y-111550000D01*
X161290000Y-115570000D02*
X161290000Y-121895000D01*
%TO.N,/PB11*%
X177800000Y-96012000D02*
X177800000Y-98552000D01*
X165682500Y-103350000D02*
X166723000Y-103350000D01*
X166723000Y-103350000D02*
X167259000Y-103886000D01*
X179070000Y-94742000D02*
X177800000Y-96012000D01*
X177292000Y-103886000D02*
X177800000Y-103378000D01*
X177800000Y-103378000D02*
X177800000Y-100838000D01*
X167259000Y-103886000D02*
X177292000Y-103886000D01*
X179070000Y-81255000D02*
X179070000Y-94742000D01*
%TO.N,/PA3*%
X163830000Y-117348000D02*
X163830000Y-121895000D01*
X157770000Y-111288000D02*
X163830000Y-117348000D01*
X157770000Y-107262500D02*
X157770000Y-111288000D01*
%TO.N,/I2C1_{SDA}*%
X162270000Y-107262500D02*
X162270000Y-110454000D01*
X162270000Y-110454000D02*
X165100000Y-113284000D01*
X182943000Y-114745000D02*
X183393000Y-114295000D01*
X165100000Y-113284000D02*
X181102000Y-113284000D01*
X181610000Y-113792000D02*
X181610000Y-114745000D01*
X183393000Y-114295000D02*
X184855000Y-114295000D01*
X181102000Y-113284000D02*
X181610000Y-113792000D01*
X181610000Y-114745000D02*
X182943000Y-114745000D01*
%TO.N,/PA4*%
X163576000Y-116332000D02*
X165862000Y-116332000D01*
X158270000Y-107262500D02*
X158270000Y-111026000D01*
X158270000Y-111026000D02*
X163576000Y-116332000D01*
X166370000Y-116840000D02*
X166370000Y-121895000D01*
X165862000Y-116332000D02*
X166370000Y-116840000D01*
%TO.N,/I2C1_{SCL}*%
X181102000Y-112776000D02*
X181610000Y-112268000D01*
X162770000Y-110192000D02*
X165354000Y-112776000D01*
X181610000Y-111315000D02*
X182943000Y-111315000D01*
X165354000Y-112776000D02*
X181102000Y-112776000D01*
X162770000Y-107262500D02*
X162770000Y-110192000D01*
X181610000Y-112268000D02*
X181610000Y-111315000D01*
X183393000Y-111755000D02*
X184855000Y-111755000D01*
X182943000Y-111315000D02*
X183388000Y-111760000D01*
X183388000Y-111760000D02*
X183393000Y-111755000D01*
%TO.N,/PA5*%
X163830000Y-115824000D02*
X167386000Y-115824000D01*
X158770000Y-110764000D02*
X163830000Y-115824000D01*
X167386000Y-115824000D02*
X168910000Y-117348000D01*
X168910000Y-117348000D02*
X168910000Y-121895000D01*
X158770000Y-107262500D02*
X158770000Y-110764000D01*
%TO.N,/PC6*%
X161770000Y-95937500D02*
X161770000Y-91186000D01*
X163830000Y-89126000D02*
X163830000Y-81255000D01*
X161770000Y-91186000D02*
X163830000Y-89126000D01*
%TO.N,/PC7*%
X161270000Y-81275000D02*
X161290000Y-81255000D01*
X161270000Y-95937500D02*
X161270000Y-81275000D01*
%TO.N,/PC12*%
X155448000Y-89916000D02*
X151130000Y-89916000D01*
X151130000Y-89916000D02*
X148590000Y-87376000D01*
X148590000Y-87376000D02*
X148590000Y-81255000D01*
X157770000Y-95937500D02*
X157770000Y-92238000D01*
X157770000Y-92238000D02*
X155448000Y-89916000D01*
%TO.N,/PC13*%
X157270000Y-92500000D02*
X155194000Y-90424000D01*
X149606000Y-90424000D02*
X146050000Y-86868000D01*
X157270000Y-95937500D02*
X157270000Y-92500000D01*
X146050000Y-86868000D02*
X146050000Y-81255000D01*
X155194000Y-90424000D02*
X149606000Y-90424000D01*
%TO.N,/PB3*%
X168910000Y-115316000D02*
X171450000Y-117856000D01*
X160270000Y-111502000D02*
X164084000Y-115316000D01*
X160270000Y-107262500D02*
X160270000Y-111502000D01*
X171450000Y-117856000D02*
X171450000Y-121895000D01*
X164084000Y-115316000D02*
X168910000Y-115316000D01*
%TO.N,/PD6*%
X163270000Y-92000000D02*
X164338000Y-90932000D01*
X163270000Y-95937500D02*
X163270000Y-92000000D01*
X164338000Y-90932000D02*
X168910000Y-90932000D01*
X168910000Y-90932000D02*
X171450000Y-88392000D01*
X171450000Y-88392000D02*
X171450000Y-81255000D01*
%TO.N,/PD7*%
X162770000Y-95937500D02*
X162770000Y-91738000D01*
X168910000Y-88900000D02*
X168910000Y-81255000D01*
X162770000Y-91738000D02*
X164084000Y-90424000D01*
X164084000Y-90424000D02*
X167386000Y-90424000D01*
X167386000Y-90424000D02*
X168910000Y-88900000D01*
%TO.N,/PE8*%
X148082000Y-103632000D02*
X148082000Y-113538000D01*
X149864000Y-101850000D02*
X148082000Y-103632000D01*
X154357500Y-101850000D02*
X149864000Y-101850000D01*
X140970000Y-120650000D02*
X140970000Y-121895000D01*
X148082000Y-113538000D02*
X140970000Y-120650000D01*
%TO.N,/PE9*%
X150126000Y-102350000D02*
X154357500Y-102350000D01*
X143510000Y-120142000D02*
X148590000Y-115062000D01*
X143510000Y-121895000D02*
X143510000Y-120142000D01*
X148590000Y-103886000D02*
X150126000Y-102350000D01*
X148590000Y-115062000D02*
X148590000Y-103886000D01*
%TO.N,/PE10*%
X146050000Y-121895000D02*
X146050000Y-119634000D01*
X149098000Y-116586000D02*
X149098000Y-104140000D01*
X150388000Y-102850000D02*
X154357500Y-102850000D01*
X149098000Y-104140000D02*
X150388000Y-102850000D01*
X146050000Y-119634000D02*
X149098000Y-116586000D01*
%TO.N,/PD2*%
X176530000Y-97536000D02*
X176530000Y-81255000D01*
X175216000Y-98850000D02*
X176530000Y-97536000D01*
X165682500Y-98850000D02*
X175216000Y-98850000D01*
%TO.N,/PE11*%
X154357500Y-103350000D02*
X150650000Y-103350000D01*
X150650000Y-103350000D02*
X149606000Y-104394000D01*
X149606000Y-104394000D02*
X149606000Y-118110000D01*
X149606000Y-118110000D02*
X148590000Y-119126000D01*
X148590000Y-119126000D02*
X148590000Y-121895000D01*
%TO.N,/PD3*%
X173990000Y-97536000D02*
X173990000Y-81255000D01*
X165682500Y-98350000D02*
X173176000Y-98350000D01*
X173176000Y-98350000D02*
X173990000Y-97536000D01*
%TO.N,/PE12*%
X151130000Y-119126000D02*
X150114000Y-118110000D01*
X150114000Y-104648000D02*
X150912000Y-103850000D01*
X151130000Y-121895000D02*
X151130000Y-119126000D01*
X150114000Y-118110000D02*
X150114000Y-104648000D01*
X150912000Y-103850000D02*
X154357500Y-103850000D01*
%TO.N,/PD8*%
X165862000Y-89916000D02*
X166370000Y-89408000D01*
X163830000Y-89916000D02*
X165862000Y-89916000D01*
X162270000Y-91476000D02*
X163830000Y-89916000D01*
X162270000Y-95937500D02*
X162270000Y-91476000D01*
X166370000Y-89408000D02*
X166370000Y-81255000D01*
%TO.N,/PE4*%
X159770000Y-91190000D02*
X158750000Y-90170000D01*
X158750000Y-90170000D02*
X158750000Y-81255000D01*
X159770000Y-95937500D02*
X159770000Y-91190000D01*
%TO.N,/PE15*%
X154357500Y-105350000D02*
X154357500Y-121207500D01*
X154357500Y-121207500D02*
X153670000Y-121895000D01*
%TO.N,/PE5*%
X159270000Y-95937500D02*
X159270000Y-91452000D01*
X159270000Y-91452000D02*
X156210000Y-88392000D01*
X156210000Y-88392000D02*
X156210000Y-81255000D01*
%TO.N,/PC14*%
X156770000Y-92762000D02*
X154940000Y-90932000D01*
X148082000Y-90932000D02*
X143510000Y-86360000D01*
X154940000Y-90932000D02*
X148082000Y-90932000D01*
X156770000Y-95937500D02*
X156770000Y-92762000D01*
X143510000Y-86360000D02*
X143510000Y-81255000D01*
%TO.N,/PE6*%
X158770000Y-95937500D02*
X158770000Y-91714000D01*
X158770000Y-91714000D02*
X155956000Y-88900000D01*
X153670000Y-88392000D02*
X153670000Y-81255000D01*
X155956000Y-88900000D02*
X154178000Y-88900000D01*
X154178000Y-88900000D02*
X153670000Y-88392000D01*
%TO.N,/PC15*%
X146558000Y-91440000D02*
X140970000Y-85852000D01*
X156270000Y-93151000D02*
X154559000Y-91440000D01*
X154559000Y-91440000D02*
X146558000Y-91440000D01*
X156270000Y-95937500D02*
X156270000Y-93151000D01*
X140970000Y-85852000D02*
X140970000Y-81255000D01*
%TO.N,/PE7*%
X152654000Y-89408000D02*
X151130000Y-87884000D01*
X155702000Y-89408000D02*
X152654000Y-89408000D01*
X158270000Y-91976000D02*
X155702000Y-89408000D01*
X158270000Y-95937500D02*
X158270000Y-91976000D01*
X151130000Y-87884000D02*
X151130000Y-81255000D01*
%TO.N,/TX_{BOOT}*%
X154357500Y-97850000D02*
X150054000Y-97850000D01*
X130235000Y-107880000D02*
X130175000Y-107940000D01*
X150054000Y-97850000D02*
X145542000Y-102362000D01*
X143580000Y-107880000D02*
X130235000Y-107880000D01*
X145542000Y-102362000D02*
X145542000Y-105918000D01*
X145542000Y-105918000D02*
X143580000Y-107880000D01*
%TO.N,/RX_{BOOT}*%
X142932000Y-110560000D02*
X130255000Y-110560000D01*
X154357500Y-98350000D02*
X150316000Y-98350000D01*
X130255000Y-110560000D02*
X130175000Y-110480000D01*
X150316000Y-98350000D02*
X146050000Y-102616000D01*
X146050000Y-102616000D02*
X146050000Y-107442000D01*
X146050000Y-107442000D02*
X142932000Y-110560000D01*
%TO.N,/SWDIO*%
X136525000Y-112375000D02*
X136525000Y-111760000D01*
X136535000Y-112385000D02*
X136525000Y-112375000D01*
X136535000Y-113655000D02*
X136535000Y-112385000D01*
%TO.N,/SWCLK*%
X135128000Y-104140000D02*
X134620000Y-103632000D01*
X134620000Y-103632000D02*
X134620000Y-102885000D01*
X137414000Y-104140000D02*
X135128000Y-104140000D01*
X137795000Y-104521000D02*
X137414000Y-104140000D01*
X137795000Y-106680000D02*
X137795000Y-104521000D01*
%TO.N,/TDO_{JTAG}*%
X146558000Y-102870000D02*
X146558000Y-108966000D01*
X154357500Y-98850000D02*
X150578000Y-98850000D01*
X146558000Y-108966000D02*
X139329000Y-116195000D01*
X139329000Y-116195000D02*
X136535000Y-116195000D01*
X150578000Y-98850000D02*
X146558000Y-102870000D01*
%TO.N,/TDI_{JTAG}*%
X142123000Y-117465000D02*
X147574000Y-112014000D01*
X136535000Y-117465000D02*
X142123000Y-117465000D01*
X147574000Y-112014000D02*
X147574000Y-103378000D01*
X147574000Y-103378000D02*
X150602000Y-100350000D01*
X150602000Y-100350000D02*
X154357500Y-100350000D01*
%TO.N,/~{RST}*%
X136144000Y-120650000D02*
X129540000Y-120650000D01*
X155194000Y-106553000D02*
X155194000Y-117602000D01*
X122682000Y-113792000D02*
X122682000Y-88646000D01*
X133858000Y-81915000D02*
X135980000Y-81915000D01*
X164501000Y-103850000D02*
X163830000Y-104521000D01*
X130683000Y-85090000D02*
X133858000Y-81915000D01*
X141615000Y-118735000D02*
X142240000Y-118110000D01*
X163830000Y-104521000D02*
X157226000Y-104521000D01*
X136535000Y-120259000D02*
X136144000Y-120650000D01*
X122682000Y-88646000D02*
X126238000Y-85090000D01*
X129540000Y-120650000D02*
X122682000Y-113792000D01*
X126238000Y-85090000D02*
X130683000Y-85090000D01*
X157226000Y-104521000D02*
X155194000Y-106553000D01*
X165682500Y-103850000D02*
X164501000Y-103850000D01*
X136535000Y-118735000D02*
X136535000Y-120259000D01*
X136535000Y-118735000D02*
X141615000Y-118735000D01*
D41*
%TO.N,Net-(Q1-Pad1)*%
X130495000Y-88580000D02*
X132382500Y-88580000D01*
X129540000Y-90615000D02*
X129540000Y-89535000D01*
X129540000Y-89535000D02*
X130495000Y-88580000D01*
%TO.N,Net-(R1-Pad2)*%
X132840000Y-95565000D02*
X132715000Y-95440000D01*
X135387500Y-95565000D02*
X132840000Y-95565000D01*
%TO.N,Net-(R3-Pad2)*%
X139700000Y-97600000D02*
X139700000Y-95440000D01*
X139575000Y-95565000D02*
X139700000Y-95440000D01*
X137662500Y-95565000D02*
X139575000Y-95565000D01*
D42*
%TO.N,/BTLDR*%
X147066000Y-103124000D02*
X147066000Y-110490002D01*
X147066000Y-110490002D02*
X140716002Y-116840000D01*
X140716002Y-116840000D02*
X138303000Y-116840000D01*
X150840000Y-99350000D02*
X147066000Y-103124000D01*
X132270000Y-113665000D02*
X132270000Y-119570000D01*
X132715000Y-120015000D02*
X135636000Y-120015000D01*
X132270000Y-119570000D02*
X132715000Y-120015000D01*
X154357500Y-99350000D02*
X150840000Y-99350000D01*
%TO.N,/USR*%
X151809000Y-104350000D02*
X151130000Y-105029000D01*
X151130000Y-105029000D02*
X151130000Y-107760000D01*
X154357500Y-104350000D02*
X151809000Y-104350000D01*
D44*
%TO.N,/LFXTALP*%
X163270000Y-107262500D02*
X163270000Y-109930000D01*
X164465000Y-111125000D02*
X166390000Y-111125000D01*
X163270000Y-109930000D02*
X164465000Y-111125000D01*
%TO.N,/LFXTALN*%
X168656000Y-109728000D02*
X168890000Y-109962000D01*
X168890000Y-109962000D02*
X168890000Y-111125000D01*
X163770000Y-108525000D02*
X164973000Y-109728000D01*
X163770000Y-107262500D02*
X163770000Y-108525000D01*
X164973000Y-109728000D02*
X168656000Y-109728000D01*
%TO.N,/HFXTALP*%
X170684000Y-101850000D02*
X171238000Y-102404000D01*
X171238000Y-102404000D02*
X173290000Y-102404000D01*
X165682500Y-101850000D02*
X170684000Y-101850000D01*
%TO.N,/HFXTALN*%
X174690000Y-100522000D02*
X174690000Y-101304000D01*
X165682500Y-101350000D02*
X170684000Y-101350000D01*
X174498000Y-100330000D02*
X174690000Y-100522000D01*
X171704000Y-100330000D02*
X174498000Y-100330000D01*
X170684000Y-101350000D02*
X171704000Y-100330000D01*
D42*
%TO.N,/UART1_{RX}*%
X183124000Y-97800000D02*
X184855000Y-97800000D01*
X165682500Y-99350000D02*
X181574000Y-99350000D01*
X181574000Y-99350000D02*
X183124000Y-97800000D01*
%TO.N,/UART1_{TX}*%
X182118000Y-100330000D02*
X181638000Y-99850000D01*
X184845000Y-100330000D02*
X182118000Y-100330000D01*
X184855000Y-100340000D02*
X184845000Y-100330000D01*
X181638000Y-99850000D02*
X165682500Y-99850000D01*
%TO.N,/UART1_{RTS}*%
X172974000Y-92075000D02*
X172974000Y-96393000D01*
X172339000Y-91440000D02*
X172974000Y-92075000D01*
X164465000Y-91440000D02*
X172339000Y-91440000D01*
X163770000Y-92135000D02*
X164465000Y-91440000D01*
X163770000Y-95937500D02*
X163770000Y-92135000D01*
%TO.N,/UART1_{CTS}*%
X172406000Y-97850000D02*
X172974000Y-97282000D01*
X165682500Y-97850000D02*
X172406000Y-97850000D01*
%TD*%
M02*
